<svg width="47" height="46" viewBox="0 0 47 46" fill="none" xmlns="http://www.w3.org/2000/svg">
<path d="M37.06 9.42C34.39 12.9 29.44 13.61 29.44 13.61C29.44 13.61 28.83 8.67 31.5 5.19C34.16 1.71 39.11 1 39.11 1C39.11 1 39.73 5.94 37.06 9.42Z" stroke="#22222C" stroke-width="2" stroke-miterlimit="10" stroke-linecap="round" stroke-linejoin="round"/>
<path d="M29.38 17.05C29.38 13.97 27.39 9.74998 23.62 6.72998" stroke="#22222C" stroke-width="2" stroke-miterlimit="10" stroke-linecap="round" stroke-linejoin="round"/>
<path d="M11.5 20.5601H4.5C2.84 20.5601 1.5 21.9001 1.5 23.5601C1.5 25.2201 2.84 26.5601 4.5 26.5601H37.5V38.5601H4.5C2.84 38.5601 1.5 37.2201 1.5 35.5601V23.5601" stroke="#22222C" stroke-width="2" stroke-miterlimit="10" stroke-linecap="round" stroke-linejoin="round"/>
<path d="M14.13 23.56C14.83 20.9 16.18 18.46 18.5 17.05C22.84 14.41 26.21 17.05 29.38 17.05C32.55 17.05 35.77 14.66 40.26 17.05C44.73 19.43 46.76 26.21 44.68 33.62C42.74 40.53 37.65 44.56 33.73 44.56C32.11 44.56 30.71 43.41 29.38 43.41C28.05 43.41 26.65 44.56 25.03 44.56C22.97 44.56 20.58 43.44 18.5 41.38" stroke="#22222C" stroke-width="2" stroke-miterlimit="10" stroke-linecap="round" stroke-linejoin="round"/>
<path d="M13.5 32.5601V38.5601" stroke="#22222C" stroke-width="2" stroke-miterlimit="10" stroke-linecap="round" stroke-linejoin="round"/>
<path d="M13.5 32.5601V38.5601" stroke="#22222C" stroke-width="2" stroke-miterlimit="10" stroke-linecap="round" stroke-linejoin="round"/>
<path d="M7.5 32.5601V38.5601" stroke="#22222C" stroke-width="2" stroke-miterlimit="10" stroke-linecap="round" stroke-linejoin="round"/>
<path d="M19.5 32.5601V38.5601" stroke="#22222C" stroke-width="2" stroke-miterlimit="10" stroke-linecap="round" stroke-linejoin="round"/>
<path d="M25.5 32.5601V38.5601" stroke="#22222C" stroke-width="2" stroke-miterlimit="10" stroke-linecap="round" stroke-linejoin="round"/>
<path d="M31.5 32.5601V38.5601" stroke="#22222C" stroke-width="2" stroke-miterlimit="10" stroke-linecap="round" stroke-linejoin="round"/>
</svg>
