<svg width="44" height="46" viewBox="0 0 44 46" fill="none" xmlns="http://www.w3.org/2000/svg">
<g clip-path="url(#clip0_2424_544)">
<path d="M37.9987 21.9568C40.4846 21.9568 42.4998 19.965 42.4998 17.5081C42.4998 15.0511 40.4846 13.0593 37.9987 13.0593C35.5129 13.0593 33.4977 15.0511 33.4977 17.5081C33.4977 19.965 35.5129 21.9568 37.9987 21.9568Z" stroke="#22222C" stroke-width="2" stroke-miterlimit="10"/>
<path d="M34.4979 39.7519L31.4972 22.9455L29.4967 14.0481L26.496 0.20752" stroke="#22222C" stroke-width="2" stroke-miterlimit="10" stroke-linejoin="round"/>
<path d="M29.9969 39.752L25.4958 24.9229H12.4928L10.7524 32.8317L7.49164 45.6837" stroke="#22222C" stroke-width="2" stroke-miterlimit="10" stroke-linejoin="round"/>
<path d="M1.49023 45.6835L3.4907 33.8202L4.55095 21.2549C5.03106 19.2678 6.5214 17.6564 8.49186 17.0138L23.4954 15.0366L22.4951 1.19604" stroke="#22222C" stroke-width="2" stroke-miterlimit="10" stroke-linejoin="round"/>
<path d="M17.494 24.9229L23.4954 45.6837" stroke="#22222C" stroke-width="2" stroke-miterlimit="10" stroke-linejoin="round"/>
<path d="M13.493 33.8203L17.4939 45.6836" stroke="#22222C" stroke-width="2" stroke-miterlimit="10" stroke-linejoin="round"/>
</g>
<defs>
<clipPath id="clip0_2424_544">
<rect width="43" height="46" fill="white" transform="translate(0.5)"/>
</clipPath>
</defs>
</svg>
