


<svg width="74" height="33" viewBox="0 0 74 33" fill="none" xmlns="http://www.w3.org/2000/svg">
<path d="M26.2031 10.2698C25.3687 1.74527 14.7028 -2.23132 7.70305 1.26978C-2.35131 6.29873 -1.30251 13.2707 3.70011 21.2698C8.70273 29.2689 13.1969 29.2695 19.6983 26.2699C26.1996 23.2703 27.0375 18.7943 26.2031 10.2698Z" fill="#E5E6AF"/>
<path fill-rule="evenodd" clip-rule="evenodd" d="M4.37515 1.26111C3.89453 0.780477 3.11527 0.780477 2.63464 1.26111C2.15401 1.74174 2.15401 2.52099 2.63464 3.00162L12.1206 12.4876L12.1205 30.8479C12.1205 31.5276 12.6715 32.0787 13.3512 32.0787C14.031 32.0787 14.582 31.5277 14.582 30.8479L14.582 15.6851L18.4381 19.5411C18.5983 19.7013 18.5983 19.9611 18.4381 20.1213L15.7651 22.7943C15.2844 23.2749 15.2844 24.0542 15.7651 24.5348C16.2457 25.0154 17.025 25.0154 17.5056 24.5348L20.1786 21.8618C21.3001 20.7403 21.3001 18.9221 20.1786 17.8006L14.7907 12.4127L23.7919 3.41154C24.2725 2.93091 24.2725 2.15166 23.7919 1.67103C23.3113 1.1904 22.532 1.1904 22.0514 1.67103L13.4182 10.3042L4.37515 1.26111ZM13.1461 7.05408C14.6188 7.05408 15.8127 5.86022 15.8127 4.38751C15.8127 2.9148 14.6188 1.72093 13.1461 1.72093C11.6734 1.72093 10.4795 2.9148 10.4795 4.38751C10.4795 5.86022 11.6734 7.05408 13.1461 7.05408Z" fill="#FF9B4E"/>
</svg>
